HIERARCHY
ROOT Hips
{
	OFFSET 0.000000 0.000000 0.000000
	CHANNELS 6 Xposition Yposition Zposition Xrotation Yrotation Zrotation
	JOINT LeftUpLeg_virtual
	{
		OFFSET 0.000000 0.000000 0.000000
		CHANNELS 3 Xrotation Yrotation Zrotation
		JOINT LeftUpLeg
		{
			OFFSET 11.394100 -6.187798 -0.413800
			CHANNELS 3 Xrotation Yrotation Zrotation
			JOINT LeftLeg
			{
				OFFSET 0.430247 -32.302673 3.732800
				CHANNELS 3 Xrotation Yrotation Zrotation
				JOINT LeftFoot
				{
					OFFSET -0.430247 -48.264931 -6.423300
					CHANNELS 3 Xrotation Yrotation Zrotation
					JOINT LeftToeBase
					{
						OFFSET 4.230900 -16.068199 23.438400
						CHANNELS 3 Xrotation Yrotation Zrotation
						JOINT LeftToe_End
						{
							OFFSET 4.510700 0.695400 19.974600
							CHANNELS 3 Xrotation Yrotation Zrotation
							End Site
							{
								OFFSET 0 0 0
							}
						}
					}
				}
			}
		}
	}
	JOINT RightUpLeg_virtual
	{
		OFFSET 0.000000 0.000000 0.000000
		CHANNELS 3 Xrotation Yrotation Zrotation
		JOINT RightUpLeg
		{
			OFFSET -11.333700 -6.187798 -0.413800
			CHANNELS 3 Xrotation Yrotation Zrotation
			JOINT RightLeg
			{
				OFFSET -0.430392 -32.302628 3.733000
				CHANNELS 3 Xrotation Yrotation Zrotation
				JOINT RightFoot
				{
					OFFSET 0.430392 -48.264973 -6.423500
					CHANNELS 3 Xrotation Yrotation Zrotation
					JOINT RightToeBase
					{
						OFFSET -4.230900 -16.068199 23.438400
						CHANNELS 3 Xrotation Yrotation Zrotation
						JOINT RightToe_End
						{
							OFFSET -4.510700 0.695400 19.974600
							CHANNELS 3 Xrotation Yrotation Zrotation
							End Site
							{
								OFFSET 0 0 0
							}
						}
					}
				}
			}
		}
	}
	JOINT Spine_virtual
	{
		OFFSET 0.000000 0.000000 0.000000
		CHANNELS 3 Xrotation Yrotation Zrotation
		JOINT Spine
		{
			OFFSET -0.002400 12.777504 0.315300
			CHANNELS 3 Xrotation Yrotation Zrotation
			JOINT Spine1
			{
				OFFSET -0.002067 5.816869 0.032633
				CHANNELS 3 Xrotation Yrotation Zrotation
				JOINT Spine1_split
				{
					OFFSET -0.002067 5.816869 0.032633
					CHANNELS 3 Xrotation Yrotation Zrotation
					JOINT Spine2
					{
						OFFSET -0.002067 5.816869 0.032633
						CHANNELS 3 Xrotation Yrotation Zrotation
						JOINT Neck_virtual
						{
							OFFSET 0.000000 0.000000 0.000000
							CHANNELS 3 Xrotation Yrotation Zrotation
							JOINT Neck
							{
								OFFSET -0.003700 21.199493 -0.826900
								CHANNELS 3 Xrotation Yrotation Zrotation
								JOINT Head
								{
									OFFSET 0.000000 20.442200 4.834800
									CHANNELS 3 Xrotation Yrotation Zrotation
									JOINT HeadTop_End
									{
										OFFSET 0.000000 34.668396 4.968400
										CHANNELS 3 Xrotation Yrotation Zrotation
										End Site
										{
											OFFSET 0 0 0
										}
									}
								}
							}
						}
						JOINT LeftShoulder_virtual
						{
							OFFSET 0.000000 0.000000 0.000000
							CHANNELS 3 Xrotation Yrotation Zrotation
							JOINT LeftShoulder
							{
								OFFSET 3.288150 8.794197 -1.372250
								CHANNELS 3 Xrotation Yrotation Zrotation
								JOINT LeftShoulder_split
								{
									OFFSET 3.288150 8.794197 -1.372250
									CHANNELS 3 Xrotation Yrotation Zrotation
									JOINT LeftArm
									{
										OFFSET 11.953299 -2.279007 -0.146200
										CHANNELS 3 Xrotation Yrotation Zrotation
										JOINT LeftForeArm
										{
											OFFSET 18.448900 0.000000 0.000000
											CHANNELS 3 Xrotation Yrotation Zrotation
											JOINT LeftHand
											{
												OFFSET 29.527798 0.000000 0.000000
												CHANNELS 3 Xrotation Yrotation Zrotation
												End Site
												{
													OFFSET 0 0 0
												}
											}
										}
									}
								}
							}
						}
						JOINT RightShoulder_virtual
						{
							OFFSET 0.000000 0.000000 0.000000
							CHANNELS 3 Xrotation Yrotation Zrotation
							JOINT RightShoulder
							{
								OFFSET -3.249400 8.794197 -1.372250
								CHANNELS 3 Xrotation Yrotation Zrotation
								JOINT RightShoulder_split
								{
									OFFSET -3.249400 8.794197 -1.372250
									CHANNELS 3 Xrotation Yrotation Zrotation
									JOINT RightArm
									{
										OFFSET -11.953299 -2.279007 -0.146200
										CHANNELS 3 Xrotation Yrotation Zrotation
										JOINT RightForeArm
										{
											OFFSET -18.448900 0.000000 0.000000
											CHANNELS 3 Xrotation Yrotation Zrotation
											JOINT RightHand
											{
												OFFSET -29.527802 0.000000 0.000000
												CHANNELS 3 Xrotation Yrotation Zrotation
												End Site
												{
													OFFSET 0 0 0
												}
											}
										}
									}
								}
							}
						}
					}
				}
			}
		}
	}
}
MOTION
Frames: 8
Frame Time: 0.03333333
3.393342 90.571671 0.600994 0.000000 0.000000 0.000000 -2.495903 -48.994463 -2.772021 -44.979313 1.806814 11.984256 36.770597 -10.966280 2.168443 6.695027 -2.250180 -1.993288 -4.777267 -3.723836 4.250628 0.000000 0.000000 0.000000 -2.821137 -48.018702 -2.332109 -1.501180 -1.637232 -13.068987 31.391652 -3.775890 -2.539818 -20.833853 -8.348077 25.891997 -8.781353 1.414691 -0.555365 0.000000 0.000000 0.000000 -6.705824 -47.501445 -4.784980 10.836117 7.173890 0.443082 11.080038 9.838406 -3.806280 -1.202090 1.510325 0.403798 0.000000 0.000000 0.000000 11.743910 9.550738 -4.508444 -15.988933 -3.539600 3.276269 4.004074 22.863645 -6.403210 0.000000 0.000000 0.000000 13.345437 8.817446 -3.363217 0.264399 -3.552232 -9.784138 0.841480 1.813702 2.766206 -9.571540 -6.186628 -57.733369 9.242948 -58.842585 -0.346012 0.000000 0.000000 0.000000 10.369229 9.825106 -2.948474 1.165682 17.454111 7.086375 3.111496 -0.382555 2.564565 -18.059809 -20.529667 67.404651 4.406377 49.635920 -3.503422 0.000000 0.000000 0.000000 
3.859739 90.324646 0.401058 0.000000 0.000000 0.000000 -0.950959 -50.500417 -1.627131 -47.065362 0.206492 12.386724 37.327677 -11.070976 2.322489 7.548573 -1.892444 -1.684918 -3.366877 -3.465677 3.854633 0.000000 0.000000 0.000000 -1.313251 -48.504855 -1.262021 -2.555923 -1.535312 -13.696525 33.724582 -3.004927 -2.508925 -20.891559 -7.900678 25.792495 -6.842994 0.929748 -0.399993 0.000000 0.000000 0.000000 -4.573197 -48.630831 -3.437093 10.819712 7.378038 0.500114 11.370658 9.683683 -3.829616 -0.641382 0.179884 1.133437 0.000000 0.000000 0.000000 12.151248 9.407362 -4.555606 -15.998878 -2.293113 3.625906 3.630308 24.216564 -6.993136 0.000000 0.000000 0.000000 13.505230 8.620399 -3.591595 -0.000845 -4.686285 -8.527543 -0.669727 -0.990301 0.045748 -10.143868 -4.926121 -57.271881 6.649118 -52.663016 -1.716155 0.000000 0.000000 0.000000 10.434585 9.693549 -3.069729 0.753893 17.328815 7.233852 4.412000 -0.414940 2.381010 -15.865262 -20.509371 67.397609 3.912778 51.749085 -3.253814 0.000000 0.000000 0.000000 
4.497060 89.046196 -0.217426 0.000000 0.000000 0.000000 2.224943 -51.462709 1.335749 -51.853758 -2.121808 12.264627 39.418398 -10.405354 2.431242 8.103179 -0.691600 -2.419570 -0.795438 -2.919871 2.567787 0.000000 0.000000 0.000000 1.688315 -48.846071 1.456142 -7.379808 -1.367272 -15.079079 39.702592 -2.551169 -2.170560 -21.586512 -7.687062 24.680368 -5.004731 0.384298 -0.195939 0.000000 0.000000 0.000000 -0.589199 -49.462294 -0.126130 10.846585 7.428369 0.319857 11.967014 9.247020 -3.901427 -0.332825 -0.977441 0.849887 0.000000 0.000000 0.000000 13.033895 8.875792 -4.703484 -17.764400 -1.107909 4.597382 2.356386 26.775293 -7.902780 0.000000 0.000000 0.000000 13.877326 8.151375 -3.885617 -0.418283 -6.193221 -6.662681 -2.344107 -4.278653 -2.975928 -11.376039 -7.902881 -55.291512 7.825629 -45.100777 -0.098602 0.000000 0.000000 0.000000 11.006946 9.226495 -3.323397 -0.012857 17.078190 7.601587 4.812808 0.406675 2.355134 -13.685941 -18.807689 65.999906 2.574540 53.476386 -2.221137 0.000000 0.000000 0.000000 
5.198787 86.798409 -1.149841 0.000000 0.000000 0.000000 6.866444 -51.552492 5.919213 -58.571235 -4.635887 11.201811 42.986185 -9.269070 2.577507 8.335864 0.912959 -4.658732 1.242679 -2.280194 0.835896 0.000000 0.000000 0.000000 5.818119 -49.403895 5.634699 -15.569145 -1.188734 -17.288421 48.383400 -2.329592 -1.626234 -23.091818 -7.375487 22.678265 -3.448429 -0.175924 -0.124292 0.000000 0.000000 0.000000 4.989267 -49.646579 4.932845 10.757973 7.231157 -0.065269 12.702344 8.492260 -3.952987 -0.736492 -2.023520 0.650849 0.000000 0.000000 0.000000 14.131175 8.060313 -4.849195 -21.038475 -0.037863 5.947660 0.820189 30.112716 -8.917124 0.000000 0.000000 0.000000 14.365017 7.442135 -4.091539 -0.913216 -7.485378 -4.988545 -2.982960 -6.273156 -5.540424 -13.974675 -13.405307 -52.472413 10.354322 -38.371176 2.324808 0.000000 0.000000 0.000000 11.992731 8.422573 -3.625812 -0.974762 16.956180 8.411359 4.128158 2.155463 2.582531 -11.776939 -15.657942 63.393991 0.517542 54.204327 -0.335122 0.000000 0.000000 0.000000 
5.950818 83.702774 -2.313927 0.000000 0.000000 0.000000 12.219056 -50.715309 11.412023 -66.420045 -6.902286 9.507663 47.774066 -7.986836 2.751643 8.407732 2.308168 -8.088034 1.618127 -1.680009 -0.638069 0.000000 0.000000 0.000000 10.686269 -49.626208 10.891860 -26.435055 -0.880481 -20.355009 58.354684 -2.189343 -0.906280 -25.072894 -6.652273 20.585712 -2.404585 -0.725775 -0.355862 0.000000 0.000000 0.000000 11.564464 -49.035181 11.012934 10.406147 6.694294 -0.574938 13.510835 7.473089 -3.999106 -0.467823 -2.727298 0.224327 0.000000 0.000000 0.000000 15.140909 7.056893 -4.876020 -25.234539 0.876105 7.427539 -0.259542 33.634635 -9.921826 0.000000 0.000000 0.000000 14.821715 6.556941 -4.197874 -1.506234 -8.366725 -4.355592 -2.458427 -6.763775 -5.482170 -16.977000 -18.895867 -49.904169 12.637747 -34.625149 4.398687 0.000000 0.000000 0.000000 13.224680 7.361586 -3.864293 -2.138927 17.406484 10.117026 2.405338 4.768059 2.971045 -10.479000 -11.814645 59.792596 -2.286950 53.412592 2.339719 0.000000 0.000000 0.000000 
6.528270 80.011292 -3.138050 0.000000 0.000000 0.000000 17.575233 -48.848348 16.865226 -74.659582 -8.515039 7.864856 53.511179 -6.879334 2.827975 8.242840 3.050042 -11.791216 0.590796 -1.201547 -1.567323 0.000000 0.000000 0.000000 15.589029 -49.304188 16.438049 -38.360200 -0.308703 -24.069592 68.218283 -1.742948 -0.186553 -27.499303 -5.380968 19.289504 -2.004731 -1.240540 -0.950380 0.000000 0.000000 0.000000 18.241617 -47.998714 17.077088 9.824220 5.761870 -1.138670 14.260947 6.281650 -4.075502 0.198167 -3.232380 0.319926 0.000000 0.000000 0.000000 15.804117 5.939912 -4.778506 -29.704206 1.741887 9.003771 -0.344929 36.743788 -10.790802 0.000000 0.000000 0.000000 15.226256 5.551280 -4.292020 -2.259104 -8.767597 -5.243749 -1.269949 -5.747068 -3.761633 -19.448528 -22.136003 -48.190502 13.864265 -35.907312 5.960557 0.000000 0.000000 0.000000 14.450764 6.165788 -4.011460 -3.615498 18.728684 13.091417 -0.141991 6.991288 3.467359 -9.871969 -8.355470 55.534550 -5.454398 51.548466 5.285626 0.000000 0.000000 0.000000 
6.732022 75.752159 -3.596027 0.000000 0.000000 0.000000 21.808471 -46.375533 21.189767 -82.642461 -9.521215 6.958610 59.779346 -6.265299 2.770364 7.736260 3.097092 -14.954038 -0.674259 -0.881707 -1.951514 0.000000 0.000000 0.000000 19.903941 -48.546266 21.432058 -49.464551 0.757980 -27.876633 77.071199 -0.806271 0.184597 -31.257367 -3.835370 18.916837 -2.237656 -1.604154 -1.867210 0.000000 0.000000 0.000000 23.914174 -46.824765 22.076650 9.207876 4.571509 -1.657237 14.809578 4.982394 -4.210174 1.015607 -3.138116 0.924397 0.000000 0.000000 0.000000 15.945857 4.734986 -4.635181 -33.938684 2.813226 10.753786 0.659780 38.862639 -11.297160 0.000000 0.000000 0.000000 15.431983 4.462444 -4.475526 -3.090285 -8.858626 -7.338131 -0.430544 -4.194575 -2.086228 -21.348923 -22.761404 -48.101355 13.355826 -42.269828 6.832181 0.000000 0.000000 0.000000 15.440015 4.894961 -4.152370 -5.608463 20.806162 17.406708 -2.768198 8.548600 3.149082 -9.735988 -5.600537 51.724066 -8.571521 49.411832 7.705704 0.000000 0.000000 0.000000 
6.686175 70.945442 -3.629650 0.000000 0.000000 0.000000 24.209611 -43.767439 23.620585 -90.159631 -10.334486 7.303966 66.108308 -6.454192 2.551779 6.977038 2.305077 -17.061461 -1.444251 -0.735702 -1.708132 0.000000 0.000000 0.000000 22.790769 -47.322651 24.643153 -57.640513 2.101643 -31.133423 84.324457 0.441263 0.120544 -36.892099 -2.447136 19.277540 -3.129648 -1.714409 -2.810132 0.000000 0.000000 0.000000 27.748678 -46.100666 25.363928 8.687779 3.354772 -1.967773 15.078628 3.726612 -4.493752 1.206579 -2.302881 1.158418 0.000000 0.000000 0.000000 15.664713 3.484825 -4.599570 -37.558097 4.121284 12.662597 2.538660 39.611392 -11.230701 0.000000 0.000000 0.000000 15.380630 3.361250 -4.886311 -3.909415 -8.746683 -9.458402 0.084084 -3.383670 -0.813877 -22.848110 -22.658003 -49.729900 11.558556 -54.361715 7.193066 0.000000 0.000000 0.000000 16.055162 3.615032 -4.398112 -8.234169 23.426873 22.622375 -4.241864 8.962053 1.879443 -10.698761 -3.393212 48.452508 -12.138891 49.716670 9.763383 0.000000 0.000000 0.000000 
